PathFileType	4	(X/Y/Z)	OpenSim_Sub08_EMGBaseline_Magnet.trc
DataRate	CameraRate	NumFrames	NumMarkers	Units	OrigDataRate	OrigDataStartFrame	OrigNumFrames
100	100	16	8	m	100	4991	6654
Frame#	Time	torso_imu_offset_imu	pelvis_imu_offset_imu	tibia_r_imu_offset_imu	femur_r_imu_offset_imu	tibia_l_imu_offset_imu	femur_l_imu_offset_imu	toes_r_imu_offset_imu	toes_l_imu_offset_imu
				X1	Y1	Z1	X2	Y2	Z2	X3	Y3	Z3	X4	Y4	Z4	X5	Y5	Z5	X6	Y6	Z6	X7	Y7	Z7	X8		Y8	Z8	

4991	49.90000000	-0.94754621	-0.11543382	0.00774179	-0.66399102	0.12250097	-0.66060678	-0.09888079	-0.79887442	-0.06942909	-0.82421182	-0.21142453	-0.13348979	-0.67331979	0.31144718	0.32641388	-0.73192609	0.10431973	0.38902260	-0.49324250	-0.74493896	0.11679088	-0.70375751	-0.22609527	-0.37466894
4992	49.91000000	-0.95135210	-0.11173488	0.00900684	-0.66704835	0.12716038	-0.65141978	-0.10441754	-0.79885580	-0.07917033	-0.82514748	-0.19060194	-0.12844552	-0.67547453	0.31643048	0.33511061	-0.73110765	0.10398207	0.38835139	-0.48841813	-0.74649786	0.08471718	-0.70229647	-0.22293209	-0.36925092
4993	49.92000000	-0.94926757	-0.10697458	0.01334839	-0.66807403	0.13193229	-0.64881664	-0.11244632	-0.79399635	-0.10096372	-0.83095285	-0.17039390	-0.12108737	-0.67080735	0.32110928	0.33815175	-0.72638500	0.10444711	0.39103081	-0.48641180	-0.74050578	0.06513224	-0.70627279	-0.22339778	-0.36445463
4994	49.93000000	-0.95028506	-0.10947925	0.02216935	-0.66415635	0.14239380	-0.64980211	-0.12771470	-0.78515232	-0.12793974	-0.83895659	-0.15711053	-0.11352274	-0.66724896	0.32124711	0.33952035	-0.72479704	0.11277169	0.39888875	-0.48708836	-0.73373015	0.05938321	-0.71004977	-0.21958338	-0.36750943
4995	49.94000000	-0.95129504	-0.11390944	0.02449997	-0.66297034	0.14606164	-0.64633449	-0.14531720	-0.77615268	-0.16225671	-0.84187084	-0.14217981	-0.11176666	-0.66699664	0.32749684	0.34839205	-0.72443389	0.12166161	0.40341302	-0.49674288	-0.72007323	0.05044968	-0.70597719	-0.22667706	-0.36945452
4996	49.95000000	-0.94840041	-0.11248206	0.02740932	-0.66902584	0.14971048	-0.65025440	-0.16487584	-0.76466893	-0.18666104	-0.84547111	-0.12888382	-0.10613878	-0.65288052	0.33496693	0.34809555	-0.71566860	0.12882630	0.40584666	-0.50562033	-0.70106368	0.02619102	-0.70203361	-0.22985412	-0.36735465
4997	49.96000000	-0.95172096	-0.11096079	0.02859885	-0.67073033	0.16138451	-0.64736036	-0.18504829	-0.75217834	-0.20347200	-0.84862320	-0.11543336	-0.09640313	-0.65003333	0.34782640	0.34378665	-0.71593475	0.12672990	0.40543792	-0.51969943	-0.68195402	-0.00599131	-0.70505804	-0.22828174	-0.36765743
4998	49.97000000	-0.94724523	-0.11607233	0.03269978	-0.66954747	0.17005310	-0.64460314	-0.20927976	-0.74460562	-0.22405950	-0.84943067	-0.10268487	-0.09525458	-0.64857821	0.35476715	0.34853972	-0.71758769	0.12717161	0.40717024	-0.53351486	-0.66162545	-0.03830697	-0.70237880	-0.22974229	-0.36821225
4999	49.98000000	-0.94557102	-0.12027333	0.03036970	-0.66778729	0.17179331	-0.64012770	-0.23807828	-0.73464634	-0.23304313	-0.85699771	-0.09157733	-0.08888440	-0.64874407	0.36236184	0.34467926	-0.71862593	0.13610411	0.41028384	-0.54080919	-0.63471538	-0.06753642	-0.69885982	-0.22821432	-0.37129693
5000	49.99000000	-0.95103927	-0.12372696	0.02644723	-0.66547031	0.18168378	-0.64068516	-0.27587054	-0.72335140	-0.21699047	-0.85670561	-0.08113505	-0.07483737	-0.64620345	0.37053501	0.34298546	-0.70901373	0.13772638	0.41188361	-0.55053834	-0.60859721	-0.09703680	-0.70089116	-0.23629303	-0.37068902
5001	50.00000000	-0.94391733	-0.12581217	0.03061538	-0.66929869	0.18743929	-0.64214018	-0.30425430	-0.71911078	-0.19174878	-0.85311900	-0.07596222	-0.06614162	-0.64275203	0.37675968	0.34744820	-0.71191334	0.14464866	0.41265501	-0.55550431	-0.58864431	-0.12724899	-0.69959110	-0.23651266	-0.36653833
5002	50.01000000	-0.94021277	-0.12687024	0.02789550	-0.66851421	0.19035874	-0.63766723	-0.33886209	-0.71547949	-0.14940857	-0.85882179	-0.06835326	-0.06476878	-0.63633491	0.37768327	0.34861416	-0.70984039	0.15586381	0.41250801	-0.56420914	-0.56070898	-0.15348578	-0.69326650	-0.23224897	-0.36439973
5003	50.02000000	-0.94437298	-0.13362187	0.02860803	-0.66573380	0.19584590	-0.63601632	-0.36986786	-0.70757415	-0.10122950	-0.85999794	-0.06108567	-0.05645090	-0.63692375	0.37834529	0.35317880	-0.70417062	0.15746554	0.41930014	-0.56771895	-0.53540348	-0.17524925	-0.69369301	-0.23625066	-0.36297932
5004	50.03000000	-0.94225686	-0.13878881	0.03436847	-0.66536522	0.19835354	-0.63844992	-0.39641996	-0.68796893	-0.06948271	-0.86261280	-0.05385020	-0.04422679	-0.63394675	0.38530413	0.35798447	-0.70048974	0.16360362	0.41584010	-0.57920620	-0.51041345	-0.19571525	-0.69464607	-0.23981856	-0.36243248
5005	50.04000000	-0.94134035	-0.13585835	0.02525709	-0.66391469	0.20615440	-0.63777533	-0.43428443	-0.67153775	-0.05312831	-0.86037547	-0.04776085	-0.04487158	-0.62758155	0.38871040	0.36022520	-0.70406722	0.17329560	0.42153675	-0.58716790	-0.48312932	-0.21039316	-0.69640114	-0.23738450	-0.36609089
5006	50.05000000	-0.94570070	-0.14173004	0.03457910	-0.66378574	0.21079222	-0.63360933	-0.46040125	-0.65710274	-0.04945506	-0.86148777	-0.04620676	-0.04479234	-0.62454118	0.38935859	0.35856145	-0.69567991	0.17456974	0.42664196	-0.59414374	-0.45905965	-0.22888441	-0.69448783	-0.23771978	-0.37477508
